<svg width="399.20002441406245" height="147.8119009316934" viewBox="0 0 370 137" class="looka-1j8o68f"><defs id="SvgjsDefs1785"></defs><g id="SvgjsG1786" featurekey="rootContainer" transform="matrix(1,0,0,1,0,0)" fill="#111111"><rect y="0" height="1" width="1" opacity="0"></rect><rect y="132" width="370" height="5"></rect></g><g id="SvgjsG1787" featurekey="symbolFeature-0" transform="matrix(2.129340992259061,0,0,2.129340992259061,-1.0811458013413815,18.265302526456136)" fill="#111111"><g xmlns="http://www.w3.org/2000/svg"><g><g><path fill="#111111" d="M0.6,2.7C6,9.7,11.9,16.3,18.4,22.4c0.6,0.5,1.5-0.3,0.9-0.9C12.9,15.5,7,9,1.7,2C1.2,1.4,0.2,2,0.6,2.7     L0.6,2.7z"></path></g></g><g><g><path fill="#111111" d="M16,42.4c0.8-2.6,0.5-4.8-0.1-7.4c-1.6-6.7,1.4-14.5,9.7-12c2.4,0.7,4.8,2.3,7,3.5     c2.7,1.5,5.2,2.2,0.1,4.2c-1.4,0.5-4.4-2-5.5-2.7c-1.7-1-3.5-1.9-5.3-2.7c-0.4-0.2-0.9,0-0.9,0.5c-0.2,2.4,3.8,4.6,5.4,6.1     c1.5,0.6,1.6,1.6,0.5,2.8c-0.9,0.8-2,1.1-3.3,1.1c-1.8-1.4-3.3-3.9-4.7-5.7c-0.4-0.5-1.2,0-1,0.6c0.9,4,3.3,9.2-2.4,10.8     c-0.8,0.2-0.4,1.4,0.3,1.2c1.1-0.3,4.8-1,5.2-2.5c0.7-2.7-1.3-7.2-1.9-9.8c-0.3,0.2-0.7,0.4-1,0.6c1.3,1.6,3.7,5.9,5.8,6.4     c1.9,0.5,4.6-2.2,5.9-3.3c0.3-0.2,0.2-0.7,0-0.9c-1.3-1.2-7.5-5.5-7.4-7.4c-0.3,0.2-0.6,0.4-0.9,0.5C24.6,28,28.2,31,31.7,32     c2.1,0.6,4.6-2,5.7-3.4c0.2-0.3,0.3-0.8-0.1-1c-5.6-3.1-13-9.1-19.3-5c-7.5,4.9-1.1,13-3.2,19.4C14.6,42.9,15.8,43.2,16,42.4     L16,42.4z"></path></g></g><g><g><path fill="#111111" d="M41.7,28.5c0.8,0,0.8-1.3,0-1.3C40.9,27.2,40.9,28.5,41.7,28.5L41.7,28.5z"></path></g></g><g><g><path fill="#111111" d="M38.3,35.4c0.4,0.2,0.8,0.2,1.2,0.2c0.3,0,0.6-0.3,0.6-0.6c0-0.3-0.3-0.7-0.6-0.6c-0.3,0-0.6,0-0.9-0.1     C37.9,33.9,37.5,35.2,38.3,35.4L38.3,35.4z"></path></g></g><g><g><path fill="#111111" d="M31.2,40.4c0.4,0,0.9,0,1.3,0.1c0.8,0.2,1.1-1,0.3-1.2c-0.5-0.1-1.1-0.2-1.6-0.2     C30.4,39.2,30.4,40.5,31.2,40.4L31.2,40.4z"></path></g></g><g><g><path fill="#111111" d="M28.7,46.3c0.6,0,1.2,0,1.7,0c0.8,0,0.8-1.3,0-1.3c-0.6,0-1.2,0-1.7,0C27.9,45,27.9,46.3,28.7,46.3     L28.7,46.3z"></path></g></g><g><g><path fill="#111111" d="M38.2,43.5c0.1,0,0.3,0,0.4,0c0.8,0,0.8-1.3,0-1.3c-0.1,0-0.3,0-0.4,0C37.4,42.2,37.4,43.5,38.2,43.5     L38.2,43.5z"></path></g></g><g><g><path fill="#111111" d="M45.8,41.5c0.3,0.1,0.6,0.1,0.9,0.2c0.8,0.2,1.1-1,0.3-1.2c-0.3-0.1-0.6-0.1-0.9-0.2     C45.3,40.1,45,41.3,45.8,41.5L45.8,41.5z"></path></g></g></g></g><g id="SvgjsG1788" featurekey="nameFeature-0" transform="matrix(1.8155410714639917,0,0,1.8155410714639917,116.36891785707202,4.129265590698543)" fill="#111111"><path d="M2 40 l0 -32 l4 0 l0 12.68 l4 -12.68 l4 0 l-4.8 15.2 l4.8 16.8 l-4 0 l-4 -14 l0 14 l-4 0 z M18.9 40 l0 -16.8 c0 -11.16 0 -15.56 6 -15.56 s6 4.4 6 15.56 l0 16.8 l-4 0 l0 -9.2 l-4 0 l0 9.2 l-4 0 z M22.9 27.6 l4 0 l0 -4.4 c0 -10.4 0 -12.36 -2 -12.36 s-2 1.96 -2 12.36 l0 4.4 z M37.4 40 l0 -16.8 c0 -11.16 0 -15.56 6 -15.56 s6 4.4 6 15.56 l0 16.8 l-4 0 l0 -9.2 l-4 0 l0 9.2 l-4 0 z M41.4 27.6 l4 0 l0 -4.4 c0 -10.4 0 -12.36 -2 -12.36 s-2 1.96 -2 12.36 l0 4.4 z M55.9 40 l0 -32 l3.6 0 l4.2 20 l0.4 0 l4.2 -20 l3.6 0 l0 32 l-4 0 l0 -16 l-2.84 16 l-2.4 0 l-2.76 -16 l0 16 l-4 0 z M77.60000000000001 8 l4.2 0 l1.2 24.08 l0.4 0 l2.4 -24.08 l3.4 0 l2.4 24.08 l0.4 0 l1.2 -24.08 l4.2 0 l-2.8 32 l-4.8 0 l-2.28 -16.72 l-2.32 16.72 l-4.8 0 z M103.10000000000001 40 l0 -16.8 c0 -11.16 0 -15.56 6 -15.56 s6 4.4 6 15.56 l0 16.8 l-4 0 l0 -9.2 l-4 0 l0 9.2 l-4 0 z M107.10000000000001 27.6 l4 0 l0 -4.4 c0 -10.4 0 -12.36 -2 -12.36 s-2 1.96 -2 12.36 l0 4.4 z M121.60000000000001 40 l0 -32 l4 0 l0 28 l5.2 0 l0 4 l-9.2 0 z M135.70000000000002 40 l0 -32 l4 0 l0 32 l-4 0 z"></path></g><g id="SvgjsG1789" featurekey="sloganFeature-0" transform="matrix(1.8480872088711344,0,0,1.8480872088711344,115.74940171081168,83.6568116209312)" fill="#111111"><path d="M2.3 15.879999999999999 l0 -4.82 c0 -2.88 1.58 -3.74 3.9 -3.74 c1.92 0 3.78 0.98 3.78 3 c0 0.44 -0.32 0.66 -0.66 0.66 s-0.68 -0.22 -0.68 -0.66 c0 -1.02 -1.12 -1.7 -2.44 -1.7 c-1.82 0 -2.58 0.74 -2.58 2.44 l0 4.82 c0 1.74 0.96 2.28 2.58 2.28 c1.92 0 2.6 -0.92 2.6 -2.7 l0 -0.84 l-1.8 0 c-0.42 0 -0.64 -0.32 -0.64 -0.66 s0.22 -0.68 0.64 -0.68 l2.5 0 c0.4 0 0.62 0.4 0.62 0.68 l0 1.5 c0 2.88 -1.12 4 -3.92 4 c-2.64 0 -3.9 -0.96 -3.9 -3.58 z M14.8 18.7 l0 -10.64 c0 -0.46 0.36 -0.7 0.7 -0.7 l4.6 0 c0.44 0 0.66 0.32 0.66 0.66 s-0.22 0.68 -0.66 0.68 l-3.96 0 l0 3.88 l3.14 0 c0.46 0 0.68 0.32 0.68 0.66 s-0.24 0.7 -0.68 0.7 l-3.14 0 l0 4.14 l3.96 0 c0.42 0 0.64 0.34 0.64 0.66 c0 0.34 -0.22 0.66 -0.64 0.66 l-4.6 0 c-0.34 0 -0.7 -0.12 -0.7 -0.7 z M25 7.359999999999999 l6.04 0 c0.42 0 0.62 0.34 0.62 0.68 s-0.2 0.66 -0.62 0.66 l-2.28 0 l0 10.06 c0 0.42 -0.34 0.64 -0.68 0.64 s-0.66 -0.22 -0.66 -0.64 l0 -10.06 l-2.42 0 c-0.42 0 -0.62 -0.32 -0.62 -0.66 s0.2 -0.68 0.62 -0.68 z M43.38 18.78 l0 -10.78 c0 -0.42 0.32 -0.64 0.64 -0.64 s0.66 0.22 0.66 0.64 l0 10.78 c0 0.86 -1.3 0.86 -1.3 0 z M49.32 7.359999999999999 l6.04 0 c0.42 0 0.62 0.34 0.62 0.68 s-0.2 0.66 -0.62 0.66 l-2.28 0 l0 10.06 c0 0.42 -0.34 0.64 -0.68 0.64 s-0.66 -0.22 -0.66 -0.64 l0 -10.06 l-2.42 0 c-0.42 0 -0.62 -0.32 -0.62 -0.66 s0.2 -0.68 0.62 -0.68 z M67.72 18.78 l0 -10.76 c0 -0.54 0.38 -0.66 0.66 -0.66 l3.2 0 c2.64 0 3.94 1.26 3.94 3.74 l0 5.12 c0 1.56 -1.22 3.2 -3.88 3.2 l-3.26 0 c-0.28 0 -0.66 -0.16 -0.66 -0.64 z M74.19999999999999 16.22 l0 -5.12 c0 -1.64 -0.88 -2.4 -2.62 -2.4 l-2.54 0 l0 9.42 l2.6 0 c1.22 0 2.56 -0.66 2.56 -1.9 z M80.12 15.86 l0 -4.96 c0 -2.4 1.24 -3.68 3.64 -3.68 l0.52 0 c2.38 0 3.64 1.28 3.64 3.68 l0 4.96 c0 2.2 -1.46 3.64 -3.64 3.64 l-0.52 0 c-2.22 0 -3.64 -1.46 -3.64 -3.64 z M83.76 18.16 l0.52 0 c1.44 0 2.3 -0.9 2.3 -2.3 l0 -4.96 c0 -1.56 -0.76 -2.36 -2.3 -2.36 l-0.52 0 c-1.52 0 -2.36 0.82 -2.36 2.36 l0 4.96 c0 1.46 0.92 2.3 2.36 2.3 z M99.5 8 l0 10.76 c0 0.42 -0.32 0.64 -0.64 0.64 c-0.24 0 -0.56 -0.18 -0.7 -0.44 c-1.5 -2.94 -2.62 -5.2 -4.12 -8.16 l0 7.96 c0 0.42 -0.32 0.64 -0.66 0.64 c-0.32 0 -0.66 -0.22 -0.66 -0.64 l0 -10.76 c0 -0.7 1 -0.74 1.22 -0.32 l4.22 8.34 l0 -8.02 c0 -0.42 0.32 -0.64 0.66 -0.64 s0.68 0.22 0.68 0.64 z M104.56 18.7 l0 -10.64 c0 -0.46 0.36 -0.7 0.7 -0.7 l4.6 0 c0.44 0 0.66 0.32 0.66 0.66 s-0.22 0.68 -0.66 0.68 l-3.96 0 l0 3.88 l3.14 0 c0.46 0 0.68 0.32 0.68 0.66 s-0.24 0.7 -0.68 0.7 l-3.14 0 l0 4.14 l3.96 0 c0.42 0 0.64 0.34 0.64 0.66 c0 0.34 -0.22 0.66 -0.64 0.66 l-4.6 0 c-0.34 0 -0.7 -0.12 -0.7 -0.7 z"></path></g></svg>